<mxfile host="app.diagrams.net" agent="Mozilla/5.0 (Windows NT 10.0; Win64; x64) AppleWebKit/537.36 (KHTML, like Gecko) Chrome/131.0.0.0 Safari/537.36" version="25.0.3">
  <diagram name="Page-1" id="r3WUniViR8Q-_TRs2SJ-">
    <mxGraphModel dx="965" dy="510" grid="1" gridSize="10" guides="1" tooltips="1" connect="1" arrows="1" fold="1" page="1" pageScale="1" pageWidth="850" pageHeight="1100" math="0" shadow="0">
      <root>
        <mxCell id="0" />
        <mxCell id="1" parent="0" />
        <mxCell id="ttHGLKsneC0CqZ8a_wNQ-3" value="" style="edgeStyle=orthogonalEdgeStyle;rounded=0;orthogonalLoop=1;jettySize=auto;html=1;" edge="1" parent="1" source="ttHGLKsneC0CqZ8a_wNQ-1" target="ttHGLKsneC0CqZ8a_wNQ-2">
          <mxGeometry relative="1" as="geometry" />
        </mxCell>
        <mxCell id="ttHGLKsneC0CqZ8a_wNQ-1" value="เริ่ม" style="strokeWidth=2;html=1;shape=mxgraph.flowchart.start_1;whiteSpace=wrap;" vertex="1" parent="1">
          <mxGeometry x="370" y="60" width="100" height="60" as="geometry" />
        </mxCell>
        <mxCell id="ttHGLKsneC0CqZ8a_wNQ-5" value="" style="edgeStyle=orthogonalEdgeStyle;rounded=0;orthogonalLoop=1;jettySize=auto;html=1;" edge="1" parent="1" source="ttHGLKsneC0CqZ8a_wNQ-24" target="ttHGLKsneC0CqZ8a_wNQ-4">
          <mxGeometry relative="1" as="geometry" />
        </mxCell>
        <mxCell id="ttHGLKsneC0CqZ8a_wNQ-2" value="กำหนดตัวแปรจำนวนอาเรย์&lt;div&gt;อินเดก&lt;/div&gt;&lt;div&gt;แวรลู่&lt;/div&gt;" style="whiteSpace=wrap;html=1;strokeWidth=2;" vertex="1" parent="1">
          <mxGeometry x="360" y="200" width="120" height="60" as="geometry" />
        </mxCell>
        <mxCell id="ttHGLKsneC0CqZ8a_wNQ-15" value="" style="edgeStyle=orthogonalEdgeStyle;rounded=0;orthogonalLoop=1;jettySize=auto;html=1;" edge="1" parent="1" source="ttHGLKsneC0CqZ8a_wNQ-4" target="ttHGLKsneC0CqZ8a_wNQ-14">
          <mxGeometry relative="1" as="geometry" />
        </mxCell>
        <mxCell id="ttHGLKsneC0CqZ8a_wNQ-27" style="edgeStyle=orthogonalEdgeStyle;rounded=0;orthogonalLoop=1;jettySize=auto;html=1;" edge="1" parent="1" source="ttHGLKsneC0CqZ8a_wNQ-4">
          <mxGeometry relative="1" as="geometry">
            <mxPoint x="420" y="1240" as="targetPoint" />
            <Array as="points">
              <mxPoint x="541" y="390" />
              <mxPoint x="541" y="1190" />
              <mxPoint x="420" y="1190" />
            </Array>
          </mxGeometry>
        </mxCell>
        <mxCell id="ttHGLKsneC0CqZ8a_wNQ-4" value="เป็น1ใช่ไหม" style="rhombus;whiteSpace=wrap;html=1;strokeWidth=2;" vertex="1" parent="1">
          <mxGeometry x="350" y="330" width="140" height="120" as="geometry" />
        </mxCell>
        <mxCell id="ttHGLKsneC0CqZ8a_wNQ-8" value="ไม่จริง" style="text;html=1;align=center;verticalAlign=middle;whiteSpace=wrap;rounded=0;" vertex="1" parent="1">
          <mxGeometry x="470" y="350" width="60" height="30" as="geometry" />
        </mxCell>
        <mxCell id="ttHGLKsneC0CqZ8a_wNQ-11" value="จริง" style="text;html=1;align=center;verticalAlign=middle;whiteSpace=wrap;rounded=0;" vertex="1" parent="1">
          <mxGeometry x="430" y="420" width="60" height="30" as="geometry" />
        </mxCell>
        <mxCell id="ttHGLKsneC0CqZ8a_wNQ-21" value="" style="edgeStyle=orthogonalEdgeStyle;rounded=0;orthogonalLoop=1;jettySize=auto;html=1;" edge="1" parent="1" source="ttHGLKsneC0CqZ8a_wNQ-12" target="ttHGLKsneC0CqZ8a_wNQ-20">
          <mxGeometry relative="1" as="geometry" />
        </mxCell>
        <mxCell id="ttHGLKsneC0CqZ8a_wNQ-23" style="edgeStyle=orthogonalEdgeStyle;rounded=0;orthogonalLoop=1;jettySize=auto;html=1;entryX=0;entryY=0.5;entryDx=0;entryDy=0;entryPerimeter=0;exitX=0;exitY=0.5;exitDx=0;exitDy=0;" edge="1" parent="1" source="ttHGLKsneC0CqZ8a_wNQ-12" target="ttHGLKsneC0CqZ8a_wNQ-24">
          <mxGeometry relative="1" as="geometry">
            <mxPoint x="400" y="290" as="targetPoint" />
            <Array as="points">
              <mxPoint x="281" y="985" />
              <mxPoint x="281" y="290" />
            </Array>
          </mxGeometry>
        </mxCell>
        <mxCell id="ttHGLKsneC0CqZ8a_wNQ-12" value="ถ้าพิม-1" style="rhombus;whiteSpace=wrap;html=1;strokeWidth=2;" vertex="1" parent="1">
          <mxGeometry x="350" y="925" width="140" height="120" as="geometry" />
        </mxCell>
        <mxCell id="ttHGLKsneC0CqZ8a_wNQ-17" value="" style="edgeStyle=orthogonalEdgeStyle;rounded=0;orthogonalLoop=1;jettySize=auto;html=1;" edge="1" parent="1" source="ttHGLKsneC0CqZ8a_wNQ-14" target="ttHGLKsneC0CqZ8a_wNQ-16">
          <mxGeometry relative="1" as="geometry" />
        </mxCell>
        <mxCell id="ttHGLKsneC0CqZ8a_wNQ-14" value="แสดงค่าอินเดก" style="shape=parallelogram;perimeter=parallelogramPerimeter;whiteSpace=wrap;html=1;fixedSize=1;strokeWidth=2;" vertex="1" parent="1">
          <mxGeometry x="360" y="560" width="120" height="60" as="geometry" />
        </mxCell>
        <mxCell id="ttHGLKsneC0CqZ8a_wNQ-18" value="" style="edgeStyle=orthogonalEdgeStyle;rounded=0;orthogonalLoop=1;jettySize=auto;html=1;entryX=0.5;entryY=0;entryDx=0;entryDy=0;" edge="1" parent="1" source="ttHGLKsneC0CqZ8a_wNQ-16" target="ttHGLKsneC0CqZ8a_wNQ-30">
          <mxGeometry relative="1" as="geometry" />
        </mxCell>
        <mxCell id="ttHGLKsneC0CqZ8a_wNQ-16" value="รับค่าแวรลู่" style="shape=parallelogram;perimeter=parallelogramPerimeter;whiteSpace=wrap;html=1;fixedSize=1;strokeWidth=2;" vertex="1" parent="1">
          <mxGeometry x="360" y="700" width="120" height="60" as="geometry" />
        </mxCell>
        <mxCell id="ttHGLKsneC0CqZ8a_wNQ-19" value="จริง" style="text;html=1;align=center;verticalAlign=middle;whiteSpace=wrap;rounded=0;" vertex="1" parent="1">
          <mxGeometry x="410" y="1030" width="60" height="30" as="geometry" />
        </mxCell>
        <mxCell id="ttHGLKsneC0CqZ8a_wNQ-20" value="เบรก" style="whiteSpace=wrap;html=1;strokeWidth=2;" vertex="1" parent="1">
          <mxGeometry x="360" y="1100" width="120" height="60" as="geometry" />
        </mxCell>
        <mxCell id="ttHGLKsneC0CqZ8a_wNQ-22" value="ไม่จริง" style="text;html=1;align=center;verticalAlign=middle;whiteSpace=wrap;rounded=0;" vertex="1" parent="1">
          <mxGeometry x="310" y="950" width="60" height="30" as="geometry" />
        </mxCell>
        <mxCell id="ttHGLKsneC0CqZ8a_wNQ-25" value="" style="edgeStyle=orthogonalEdgeStyle;rounded=0;orthogonalLoop=1;jettySize=auto;html=1;" edge="1" parent="1" source="ttHGLKsneC0CqZ8a_wNQ-2" target="ttHGLKsneC0CqZ8a_wNQ-24">
          <mxGeometry relative="1" as="geometry">
            <mxPoint x="420" y="260" as="sourcePoint" />
            <mxPoint x="420" y="330" as="targetPoint" />
          </mxGeometry>
        </mxCell>
        <mxCell id="ttHGLKsneC0CqZ8a_wNQ-24" value="" style="verticalLabelPosition=bottom;verticalAlign=top;html=1;shape=mxgraph.flowchart.on-page_reference;" vertex="1" parent="1">
          <mxGeometry x="410" y="280" width="20" height="20" as="geometry" />
        </mxCell>
        <mxCell id="ttHGLKsneC0CqZ8a_wNQ-31" value="" style="edgeStyle=orthogonalEdgeStyle;rounded=0;orthogonalLoop=1;jettySize=auto;html=1;" edge="1" parent="1" source="ttHGLKsneC0CqZ8a_wNQ-30" target="ttHGLKsneC0CqZ8a_wNQ-12">
          <mxGeometry relative="1" as="geometry" />
        </mxCell>
        <mxCell id="ttHGLKsneC0CqZ8a_wNQ-30" value="เก็บค่าอินเดก" style="whiteSpace=wrap;html=1;strokeWidth=2;" vertex="1" parent="1">
          <mxGeometry x="360" y="825" width="120" height="60" as="geometry" />
        </mxCell>
        <mxCell id="ttHGLKsneC0CqZ8a_wNQ-34" value="" style="edgeStyle=orthogonalEdgeStyle;rounded=0;orthogonalLoop=1;jettySize=auto;html=1;" edge="1" parent="1" source="ttHGLKsneC0CqZ8a_wNQ-32" target="ttHGLKsneC0CqZ8a_wNQ-33">
          <mxGeometry relative="1" as="geometry" />
        </mxCell>
        <mxCell id="ttHGLKsneC0CqZ8a_wNQ-32" value="แสดงค่าอินเดก" style="shape=parallelogram;perimeter=parallelogramPerimeter;whiteSpace=wrap;html=1;fixedSize=1;strokeWidth=2;" vertex="1" parent="1">
          <mxGeometry x="360" y="1240" width="120" height="60" as="geometry" />
        </mxCell>
        <mxCell id="ttHGLKsneC0CqZ8a_wNQ-36" value="" style="edgeStyle=orthogonalEdgeStyle;rounded=0;orthogonalLoop=1;jettySize=auto;html=1;" edge="1" parent="1" source="ttHGLKsneC0CqZ8a_wNQ-33" target="ttHGLKsneC0CqZ8a_wNQ-35">
          <mxGeometry relative="1" as="geometry" />
        </mxCell>
        <mxCell id="ttHGLKsneC0CqZ8a_wNQ-33" value="แสดงค่าอาเรย์" style="shape=parallelogram;perimeter=parallelogramPerimeter;whiteSpace=wrap;html=1;fixedSize=1;strokeWidth=2;" vertex="1" parent="1">
          <mxGeometry x="360" y="1380" width="120" height="60" as="geometry" />
        </mxCell>
        <mxCell id="ttHGLKsneC0CqZ8a_wNQ-35" value="" style="strokeWidth=2;html=1;shape=mxgraph.flowchart.start_1;whiteSpace=wrap;" vertex="1" parent="1">
          <mxGeometry x="370" y="1490" width="100" height="60" as="geometry" />
        </mxCell>
      </root>
    </mxGraphModel>
  </diagram>
</mxfile>
